<svg id="Layer_1" enable-background="new 0 0 512 512" height="512" viewBox="0 0 512 512" width="512" xmlns="http://www.w3.org/2000/svg"><g><g><path d="m306.667 288c-2.048 0-4.095-.781-5.657-2.343l-24-24c-3.124-3.125-3.124-8.189 0-11.314 3.125-3.123 8.189-3.123 11.314 0l24 24c3.124 3.125 3.124 8.189 0 11.314-1.562 1.562-3.609 2.343-5.657 2.343z" fill="#463c4b"/></g><g><path d="m216 144v-72c0-22.091-17.909-40-40-40v-16c30.928 0 56 25.072 56 56v72z" fill="#289bc3"/></g><g><g><path d="m184 32c-61.856 0-112 50.144-112 112v192h112v-32h64c26.51 0 48-21.49 48-48v-112c0-61.856-50.144-112-112-112z" fill="#fab991"/></g><g><path d="m248 336h-176c-26.51 0-48 21.49-48 48v112h272v-112c0-26.51-21.49-48-48-48z" fill="#a5c3dc"/></g><g><path d="m72 336c-26.51 0-48 21.49-48 48v112h96v-112c0-26.51-21.49-48-48-48z" fill="#d7e6f0"/></g><g><path d="m136 336c26.51 0 48 21.49 48 48v8c0 13.255 10.745 24 24 24 13.255 0 24-10.745 24-24v-8c0-26.51-21.49-48-48-48z" fill="#f0915a"/></g><g><path d="m184 304h-80c-17.673 0-32 14.327-32 32h112z" fill="#f0915a"/></g><g><circle cx="264" cy="176" fill="#463c4b" r="10.667"/></g><g><circle cx="221.333" cy="176" fill="#463c4b" r="10.667"/></g><g><path d="m216 32h-48c-58.015 0-105.726 44.109-111.428 100.62-4.834-2.932-10.506-4.62-16.572-4.62-17.673 0-32 14.327-32 32s14.327 32 32 32c5.831 0 11.292-1.567 16-4.292v68.292c0 17.673 14.327 32 32 32h32c17.673 0 32-14.327 32-32v-80c17.673 0 32-14.327 32-32h112c8.836 0 16-7.163 16-16 0-53.02-42.981-96-96-96z" fill="#463c4b"/></g><g><path d="m256 240c-8.837 0-16-7.163-16-16v-34.667c17.673 0 32 14.327 32 32v2.667c0 8.837-7.164 16-16 16z" fill="#f0915a"/></g><g><path d="m232 258.667h32c0 7.364-5.97 13.333-13.333 13.333h-5.333c-7.365 0-13.334-5.97-13.334-13.333z" fill="#463c4b"/></g><g><path d="m499.313 396.686c-6.248-6.249-16.379-6.248-22.627 0l-38.627 38.627c-3.022 3.022-7.041 4.687-11.314 4.687h-2.745-40c-4.418 0-8 3.582-8 8v48h32v-8c0-8.837 7.164-16 16-16h2.745c12.82 0 24.874-4.993 33.941-14.059l38.627-38.627c6.249-6.249 6.249-16.379 0-22.628z" fill="#f0915a"/></g><g><path d="m412 400h-36c-17.673 0-32 14.327-32 32v64h32v-48c0-4.418 3.582-8 8-8h28c11.046 0 20-8.954 20-20 0-11.046-8.954-20-20-20z" fill="#fab991"/></g></g><g><path d="m152 256h-16c-22.091 0-40-17.909-40-40 0-22.091 17.909-40 40-40h16c22.091 0 40 17.909 40 40 0 22.091-17.909 40-40 40z" fill="#463c4b"/></g><g><circle cx="136" cy="216" fill="#555a6e" r="40"/></g><g><path d="m176 16h-24c-30.928 0-56 25.072-56 56v144c0 13.255 10.745 24 24 24h16c13.255 0 24-10.745 24-24 0-13.255-10.745-24-24-24v-120c0-22.091 17.909-40 40-40z" fill="#289bc3"/></g><g><path d="m176 16h-24c-30.928 0-56 25.072-56 56v144c0 13.255 10.745 24 24 24s24-10.745 24-24-10.745-24-24-24v-120c0-30.928 25.072-56 56-56z" fill="#00d2d2"/></g><g><path d="m303.353 312h-52.686c-4.418 0-8-3.582-8-8s3.582-8 8-8h52.686c1.827 0 3.314-1.486 3.314-3.313 0-.885-.345-1.717-.97-2.342l-4.688-4.688c-3.124-3.124-3.124-8.189.001-11.313 3.124-3.123 8.189-3.123 11.313.001l4.686 4.687c3.647 3.646 5.657 8.496 5.657 13.656.001 10.648-8.663 19.312-19.313 19.312z" fill="#463c4b"/></g><g><path d="m272 288h-32c-4.418 0-8 3.582-8 8v16c0 4.418 3.582 8 8 8h32c4.418 0 8-3.582 8-8v-16c0-4.418-3.582-8-8-8z" fill="#00d2d2"/></g><g><path d="m280 304h-32v8c0 4.418-3.582 8-8 8h32c4.418 0 8-3.582 8-8z" fill="#289bc3"/></g><g><path d="m344 256v64c0 17.673 14.327 32 32 32h24l12.422 24.845c2.193 4.385 6.675 7.155 11.578 7.155 4.903 0 9.385-2.77 11.578-7.155l12.422-24.845h24c17.673 0 32-14.327 32-32v-64c0-17.673-14.327-32-32-32h-96c-17.673 0-32 14.327-32 32z" fill="#ff6e91"/></g><g fill="#d7e6f0"><path d="m440 320h-8v-40c0-4.418-3.582-8-8-8h-16c-4.418 0-8 3.582-8 8s3.582 8 8 8h8v32h-8c-4.418 0-8 3.582-8 8s3.582 8 8 8h32c4.418 0 8-3.582 8-8s-3.582-8-8-8z"/><circle cx="420" cy="252" r="12"/></g></g></svg>