<svg id="Layer_1" height="512" viewBox="0 0 256 256" width="512" xmlns="http://www.w3.org/2000/svg"><g><path d="m207.35 26.279s3.408 12.659 13.222 13.246c0 0-13.1 4.525-13.321 14.202 0 0-2.579-13.572-12.925-14.059-.001.001 12.05-1.825 13.024-13.389z" fill="#d6df58"/><path d="m207.249 55.227c-.713 0-1.335-.506-1.473-1.218-.023-.124-2.494-12.417-11.521-12.843-.77-.036-1.388-.65-1.428-1.421-.04-.77.511-1.444 1.273-1.561.441-.068 10.895-1.816 11.754-12.031.061-.726.635-1.301 1.359-1.367.731-.055 1.394.399 1.584 1.102.031.116 3.259 11.626 11.863 12.141.714.042 1.297.583 1.395 1.292.098.708-.318 1.388-.994 1.622-.121.042-12.118 4.31-12.313 12.819-.018.767-.611 1.396-1.375 1.46-.04.003-.082.005-.124.005zm-7.74-15.729c3.878 1.969 6.229 5.746 7.586 8.877 2.026-4.021 5.942-6.787 8.949-8.427-4.134-1.843-6.783-5.651-8.334-8.723-1.793 4.359-5.271 6.868-8.201 8.273z" fill="#3a312a"/><path d="m185.651 43.26s2.411 8.954 9.352 9.369c0 0-9.266 3.201-9.422 10.045 0 0-1.824-9.6-9.142-9.944 0 0 8.523-1.291 9.212-9.47z" fill="#d6df58"/><path d="m185.58 64.174c-.714 0-1.337-.507-1.473-1.22-.016-.082-1.704-8.442-7.739-8.727-.77-.036-1.388-.65-1.428-1.421-.04-.769.511-1.444 1.273-1.56.296-.047 7.363-1.242 7.942-8.112.062-.726.636-1.303 1.361-1.368.72-.057 1.392.4 1.582 1.102.021.079 2.227 7.92 7.993 8.265.714.042 1.299.584 1.396 1.293s-.32 1.388-.996 1.622c-.081.028-8.282 2.953-8.412 8.661-.018.768-.611 1.398-1.376 1.461-.04.002-.082.004-.123.004zm-4.519-11.527c2.107 1.333 3.523 3.395 4.447 5.28 1.377-2.232 3.515-3.872 5.365-4.973-2.287-1.269-3.885-3.35-4.941-5.224-1.174 2.287-3.016 3.876-4.871 4.917z" fill="#3a312a"/><path d="m185.651 16.602s2.411 8.954 9.352 9.37c0 0-9.266 3.201-9.422 10.045 0 0-1.824-9.6-9.142-9.944 0 0 8.523-1.292 9.212-9.471z" fill="#d6df58"/><path d="m185.58 37.517c-.714 0-1.337-.507-1.473-1.22-.016-.082-1.704-8.442-7.739-8.727-.77-.036-1.388-.65-1.428-1.421-.04-.77.511-1.444 1.273-1.561.296-.047 7.363-1.242 7.942-8.113.062-.726.636-1.303 1.361-1.368.72-.055 1.392.399 1.582 1.102.021.079 2.227 7.92 7.993 8.266.714.043 1.299.584 1.396 1.293s-.32 1.389-.997 1.622c-.08.028-8.281 2.952-8.411 8.661-.018.768-.611 1.397-1.376 1.461-.04.003-.082.005-.123.005zm-4.519-11.527c2.107 1.332 3.523 3.395 4.447 5.279 1.376-2.232 3.516-3.871 5.365-4.972-2.288-1.27-3.885-3.351-4.941-5.225-1.174 2.288-3.016 3.877-4.871 4.918z" fill="#3a312a"/><path d="m167.095 239.752h65.866v-90.15h-209.799v90.15h126.408z" fill="#87796f"/><path d="m232.961 241.252h-65.866c-.828 0-1.5-.672-1.5-1.5s.672-1.5 1.5-1.5h64.366v-87.15h-206.8v87.15h124.908c.828 0 1.5.672 1.5 1.5s-.672 1.5-1.5 1.5h-126.408c-.828 0-1.5-.672-1.5-1.5v-90.15c0-.828.672-1.5 1.5-1.5h209.8c.828 0 1.5.672 1.5 1.5v90.15c0 .829-.672 1.5-1.5 1.5z" fill="#3a312a"/><circle cx="128.062" cy="194.791" fill="#d6df58" r="31.833"/><path d="m128.061 228.124c-18.38 0-33.333-14.953-33.333-33.333 0-18.381 14.953-33.334 33.333-33.334s33.333 14.953 33.333 33.334c.001 18.38-14.953 33.333-33.333 33.333zm0-63.666c-16.726 0-30.333 13.607-30.333 30.334 0 16.726 13.607 30.333 30.333 30.333s30.333-13.607 30.333-30.333c.001-16.727-13.607-30.334-30.333-30.334z" fill="#3a312a"/><path d="m145.428 188.837h-11.412v-11.413h-11.909v11.413h-11.412v11.908h11.412v11.413h11.909v-11.413h11.412z" fill="#f4e0c4"/><path d="m134.016 213.658h-11.908c-.828 0-1.5-.672-1.5-1.5v-9.912h-9.913c-.828 0-1.5-.672-1.5-1.5v-11.908c0-.828.672-1.5 1.5-1.5h9.913v-9.913c0-.828.672-1.5 1.5-1.5h11.908c.828 0 1.5.672 1.5 1.5v9.913h9.912c.828 0 1.5.672 1.5 1.5v11.908c0 .828-.672 1.5-1.5 1.5h-9.912v9.912c0 .828-.672 1.5-1.5 1.5zm-10.409-3h8.908v-9.912c0-.828.672-1.5 1.5-1.5h9.912v-8.908h-9.912c-.828 0-1.5-.672-1.5-1.5v-9.913h-8.908v9.913c0 .828-.672 1.5-1.5 1.5h-9.913v8.908h9.913c.828 0 1.5.672 1.5 1.5z" fill="#3a312a"/><path d="m16.5 136.602h223v13h-223z" fill="#d6df58"/><path d="m239.5 151.102h-223c-.828 0-1.5-.672-1.5-1.5v-13c0-.828.672-1.5 1.5-1.5h223c.828 0 1.5.672 1.5 1.5v13c0 .828-.672 1.5-1.5 1.5zm-221.5-3h220v-10h-220z" fill="#3a312a"/><path d="m180 136.602v-13.327c0-3.92 3.178-7.098 7.098-7.098h31.804c3.92 0 7.098 3.178 7.098 7.098v13.327z" fill="#f5e1c5"/><path d="m226 138.102h-46c-.828 0-1.5-.672-1.5-1.5v-13.327c0-4.741 3.856-8.598 8.598-8.598h31.805c4.741 0 8.598 3.856 8.598 8.598v13.327c-.001.828-.673 1.5-1.501 1.5zm-44.5-3h43v-11.827c0-3.087-2.511-5.598-5.598-5.598h-31.805c-3.087 0-5.598 2.511-5.598 5.598v11.827z" fill="#3a312a"/><path d="m164.965 136.602v-15.112c0-9.207-7.456-16.663-16.674-16.663h-11.024v-9.337h-18.524v9.338h-11.018c-9.218 0-16.691 7.456-16.691 16.663v15.112h73.931z" fill="#f4e0c4"/><path d="m164.966 138.102h-73.932c-.828 0-1.5-.672-1.5-1.5v-15.111c0-10.016 8.16-18.163 18.191-18.163h9.518v-7.838c0-.828.672-1.5 1.5-1.5h18.524c.828 0 1.5.672 1.5 1.5v7.838h9.523c10.021 0 18.175 8.147 18.175 18.163v15.111c.001.828-.671 1.5-1.499 1.5zm-72.432-3h70.932v-13.611c0-8.361-6.808-15.163-15.175-15.163h-11.023c-.828 0-1.5-.672-1.5-1.5v-7.838h-15.524v7.838c0 .828-.672 1.5-1.5 1.5h-11.018c-8.377 0-15.191 6.802-15.191 15.163v13.611z" fill="#3a312a"/><path d="m164.966 121.493v15.112h-73.932v-15.112c0-8.282 6.049-15.151 13.976-16.441.881-.144 1.789-.221 2.714-.221h12.187l8.082 10.73 8.088-10.73h12.209c.92 0 1.817.072 2.698.221 7.934 1.279 13.978 8.154 13.978 16.441z" fill="#ea6d7a"/><path d="m164.966 138.105h-73.932c-.828 0-1.5-.672-1.5-1.5v-15.112c0-8.947 6.407-16.484 15.235-17.922.982-.16 1.977-.241 2.956-.241h12.187c.471 0 .915.222 1.198.598l6.884 9.141 6.89-9.142c.284-.376.727-.597 1.198-.597h12.209c1.007 0 1.999.082 2.949.243 8.817 1.423 15.226 8.96 15.226 17.92v15.112c0 .828-.672 1.5-1.5 1.5zm-72.432-3h70.932v-13.612c0-7.479-5.348-13.771-12.716-14.961-.796-.135-1.619-.202-2.459-.202h-11.461l-7.638 10.134c-.284.376-.728.597-1.198.597-.472 0-.915-.222-1.198-.598l-7.632-10.133h-11.438c-.818 0-1.65.068-2.474.202-7.369 1.2-12.718 7.492-12.718 14.961z" fill="#3a312a"/><path d="m110.696 104.828 12.438 31.779h-32.098v-15.113c0-8.282 6.049-15.154 13.971-16.44.885-.144 1.79-.226 2.716-.226z" fill="#f5e1c5"/><path d="m123.134 138.107h-32.098c-.828 0-1.5-.672-1.5-1.5v-15.112c0-8.951 6.405-16.488 15.23-17.921 1.006-.163 2-.246 2.956-.246h2.973c.617 0 1.172.378 1.396.953l12.438 31.779c.181.462.122.983-.157 1.393-.278.409-.742.654-1.238.654zm-30.598-3h28.399l-11.264-28.779h-1.949c-.795 0-1.628.069-2.476.207-7.365 1.196-12.711 7.487-12.711 14.96v13.612z" fill="#3a312a"/><path d="m164.964 121.494v15.113h-32.098l12.438-31.779h2.983c.926 0 1.821.072 2.706.226 7.933 1.276 13.971 8.148 13.971 16.44z" fill="#f5e1c5"/><path d="m164.964 138.107h-32.098c-.496 0-.96-.245-1.239-.654s-.338-.931-.157-1.393l12.439-31.779c.225-.575.779-.953 1.396-.953h2.983c1.033 0 2.003.081 2.963.249 8.807 1.416 15.213 8.953 15.213 17.918v15.112c0 .828-.672 1.5-1.5 1.5zm-29.9-3h28.399v-13.612c0-7.484-5.345-13.775-12.709-14.959-.808-.142-1.608-.208-2.467-.208h-1.96z" fill="#3a312a"/><path d="m127.994 115.56-5.938 4.468-11.452-15.201 5.939-4.478z" fill="#ea6d7a"/><path d="m122.057 121.528c-.455 0-.904-.206-1.199-.598l-11.451-15.2c-.498-.661-.366-1.602.295-2.1l5.938-4.479c.317-.24.719-.343 1.112-.288.394.056.75.266.989.583l11.451 15.211c.239.318.343.718.287 1.112s-.266.749-.584.988l-5.938 4.468c-.269.205-.586.303-.9.303zm-9.352-16.405 9.646 12.806 3.542-2.665-9.646-12.813z" fill="#3a312a"/><path d="m145.396 104.827-11.452 15.201-5.95-4.468 11.463-15.211z" fill="#ea6d7a"/><path d="m133.942 121.528c-.313 0-.63-.098-.899-.301l-5.949-4.468c-.318-.239-.529-.595-.585-.989s.048-.795.287-1.112l11.463-15.211c.24-.318.596-.527.99-.583.393-.056.793.048 1.111.288l5.938 4.479c.661.498.793 1.438.295 2.1l-11.452 15.2c-.294.391-.743.597-1.199.597zm-3.845-6.265 3.55 2.666 9.648-12.807-3.543-2.672z" fill="#3a312a"/><path d="m139.356 54.348h-22.712c-10.708 0-19.388 8.68-19.388 19.388s8.681 19.389 19.388 19.389h22.712c10.708 0 19.389-8.68 19.389-19.389 0-10.708-8.681-19.388-19.389-19.388z" fill="#87796f"/><path d="m139.356 94.624h-22.713c-11.518 0-20.888-9.371-20.888-20.889s9.37-20.888 20.888-20.888h22.713c11.518 0 20.888 9.37 20.888 20.888s-9.37 20.889-20.888 20.889zm-22.712-38.776c-9.863 0-17.888 8.025-17.888 17.888 0 9.864 8.024 17.889 17.888 17.889h22.713c9.863 0 17.888-8.024 17.888-17.889 0-9.863-8.024-17.888-17.888-17.888z" fill="#3a312a"/><path clip-rule="evenodd" d="m106.35 64.738c0 3.559-2.886 6.443-6.447 6.443-3.56 0-6.447-2.885-6.447-6.443 0-3.559 2.886-6.443 6.447-6.443s6.447 2.885 6.447 6.443z" fill="#f5e1c5" fill-rule="evenodd"/><path d="m99.903 72.682c-4.382 0-7.946-3.563-7.946-7.944 0-4.38 3.564-7.942 7.946-7.942s7.947 3.563 7.947 7.942c.001 4.381-3.565 7.944-7.947 7.944zm0-12.887c-2.728 0-4.946 2.217-4.946 4.942 0 2.727 2.219 4.944 4.946 4.944 2.728 0 4.947-2.218 4.947-4.944.001-2.725-2.219-4.942-4.947-4.942z" fill="#3a312a"/><path clip-rule="evenodd" d="m162.618 64.738c0 3.559-2.886 6.443-6.447 6.443s-6.447-2.885-6.447-6.443c0-3.559 2.886-6.443 6.447-6.443s6.447 2.885 6.447 6.443z" fill="#f5e1c5" fill-rule="evenodd"/><path d="m156.172 72.682c-4.382 0-7.947-3.563-7.947-7.944 0-4.38 3.565-7.942 7.947-7.942s7.946 3.563 7.946 7.942c0 4.381-3.564 7.944-7.946 7.944zm0-12.887c-2.728 0-4.947 2.217-4.947 4.942 0 2.727 2.22 4.944 4.947 4.944s4.946-2.218 4.946-4.944c0-2.725-2.219-4.942-4.946-4.942z" fill="#3a312a"/><path d="m156.618 61.612c0 8.88-4.819 20.441-11.423 28.845-5.118 6.526-11.312 11.146-17.156 11.146-5.756 0-12.126-4.919-17.389-11.766-6.42-8.348-11.19-19.56-11.19-28.224 0-15.777 12.791-28.568 28.579-28.568 15.783 0 28.579 12.791 28.579 28.567z" fill="#f5e1c5"/><path d="m128.039 103.103c-5.772 0-12.544-4.502-18.578-12.352-6.985-9.084-11.5-20.522-11.5-29.138 0-16.58 13.493-30.068 30.078-30.068 16.586 0 30.079 13.488 30.079 30.068 0 8.868-4.72 20.832-11.743 29.771-5.927 7.557-12.439 11.719-18.336 11.719zm0-68.559c-14.931 0-27.078 12.143-27.078 27.068 0 7.874 4.372 18.849 10.879 27.31 5.462 7.105 11.366 11.181 16.199 11.181 4.884 0 10.707-3.854 15.976-10.572 6.642-8.451 11.104-19.671 11.104-27.918-.001-14.926-12.148-27.069-27.08-27.069z" fill="#3a312a"/><path d="m120.737 61.288c0 1.54-1.249 2.788-2.789 2.788-1.541 0-2.789-1.248-2.789-2.788s1.249-2.788 2.789-2.788 2.789 1.248 2.789 2.788z" fill="#3a312a"/><path d="m140.917 61.288c0 1.54-1.249 2.788-2.79 2.788s-2.789-1.248-2.789-2.788 1.249-2.788 2.789-2.788c1.541 0 2.79 1.248 2.79 2.788z" fill="#3a312a"/><path d="m117.178 69.577c0 1.983-2.152 3.59-4.805 3.59-2.654 0-4.805-1.607-4.805-3.59s2.151-3.59 4.805-3.59c2.653 0 4.805 1.607 4.805 3.59z" fill="#f59689"/><path d="m148.507 69.577c0 1.983-2.151 3.59-4.805 3.59s-4.805-1.607-4.805-3.59 2.151-3.59 4.805-3.59 4.805 1.607 4.805 3.59z" fill="#f59689"/><path d="m128.037 86.28c-4.315 0-7.429-1.94-9.252-5.768-.356-.748-.038-1.644.709-2 .752-.354 1.643-.037 2 .709 1.318 2.77 3.397 4.059 6.543 4.059 3.68 0 5.898-2.355 6.492-3.939.29-.776 1.152-1.171 1.931-.878.775.29 1.169 1.155.878 1.931-1.063 2.834-4.426 5.886-9.301 5.886z" fill="#3a312a"/><path d="m161.532 49.756c0 2.98-.388 5.868-1.121 8.618-7.453-3.591-14.542-8-21.11-12.984-1.927-1.46-3.824-2.98-5.635-4.591-2.224-1.95-4.326-4.051-6.223-6.329-4.126-4.966-7.156-10.671-9.719-16.612 3.236-1.048 6.689-1.611 10.277-1.611 9.592 0 18.245 4.027 24.358 10.483 5.689 6.002 9.173 14.105 9.173 23.026z" fill="#87796f"/><path d="m160.411 59.874c-.223 0-.445-.05-.651-.148-7.357-3.545-14.546-7.966-21.365-13.14-2.174-1.647-4.047-3.173-5.726-4.665-2.397-2.102-4.546-4.289-6.379-6.49-3.716-4.472-6.875-9.866-9.943-16.977-.168-.389-.164-.828.011-1.213.174-.385.502-.679.904-.809 3.45-1.118 7.063-1.685 10.738-1.685 9.723 0 18.76 3.89 25.447 10.952 6.181 6.519 9.585 15.063 9.585 24.057 0 3.06-.395 6.09-1.172 9.004-.115.432-.417.79-.823.977-.198.091-.412.137-.626.137zm-40.627-41.059c2.736 6.08 5.558 10.779 8.812 14.696 1.733 2.081 3.771 4.154 6.059 6.16 1.627 1.445 3.44 2.923 5.553 4.523 6.141 4.659 12.584 8.69 19.177 12.002.431-2.104.648-4.264.648-6.44 0-8.223-3.112-16.033-8.763-21.993-6.115-6.459-14.379-10.016-23.27-10.016-2.797.001-5.553.359-8.216 1.068z" fill="#3a312a"/><path d="m152.358 26.731c-5.768 5.257-12.046 9.908-18.693 14.068-11.785 7.382-24.71 13.208-37.937 18.06-.818-2.895-1.254-5.947-1.254-9.103 0-14.922 9.762-27.567 23.25-31.898 3.236-1.048 6.689-1.611 10.277-1.611 9.591 0 18.244 4.028 24.357 10.484z" fill="#87796f"/><g fill="#3a312a"><path d="m95.729 60.359c-.234 0-.469-.055-.682-.164-.372-.189-.648-.526-.762-.928-.87-3.079-1.312-6.279-1.312-9.511 0-15.269 9.762-28.661 24.292-33.325 3.446-1.117 7.06-1.684 10.734-1.684 9.723 0 18.76 3.89 25.447 10.952.277.292.425.684.41 1.087-.015.402-.191.781-.488 1.053-5.571 5.077-11.933 9.865-18.908 14.231-10.834 6.786-23.335 12.738-38.216 18.196-.166.063-.341.093-.515.093zm32.271-42.611c-3.36 0-6.662.517-9.814 1.538-13.287 4.266-22.212 16.511-22.212 30.471 0 2.407.268 4.795.796 7.118 14-5.228 25.822-10.909 36.1-17.347 6.342-3.97 12.159-8.291 17.314-12.859-5.991-5.765-13.809-8.921-22.184-8.921z"/><path d="m104.545 138.105c-.828 0-1.5-.672-1.5-1.5v-11.941c0-.828.672-1.5 1.5-1.5s1.5.672 1.5 1.5v11.941c0 .828-.672 1.5-1.5 1.5z"/><path d="m151.455 138.105c-.828 0-1.5-.672-1.5-1.5v-11.941c0-.828.672-1.5 1.5-1.5s1.5.672 1.5 1.5v11.941c0 .828-.672 1.5-1.5 1.5z"/><path d="m114.777 132.498h-3.278c-.828 0-1.5-.672-1.5-1.5s.672-1.5 1.5-1.5h1.778v-7.619c0-4.134-3.362-7.496-7.496-7.496s-7.497 3.362-7.497 7.496v7.619h2.31c.828 0 1.5.672 1.5 1.5s-.672 1.5-1.5 1.5h-3.81c-.828 0-1.5-.672-1.5-1.5v-9.119c0-5.787 4.709-10.496 10.497-10.496 5.787 0 10.496 4.709 10.496 10.496v9.119c0 .828-.672 1.5-1.5 1.5z"/><path d="m105.778 114.383c-.828 0-1.5-.672-1.5-1.5v-7.932c0-.828.672-1.5 1.5-1.5s1.5.672 1.5 1.5v7.932c0 .828-.672 1.5-1.5 1.5z"/><path d="m109.946 129.174h2.003c.297 0 .538.241.538.538v2.543c0 .297-.241.538-.538.538h-2.003c-.595 0-1.077-.482-1.077-1.078v-1.464c-.001-.595.482-1.077 1.077-1.077z"/><path d="m99.612 129.174h2.003c.595 0 1.077.482 1.077 1.077v1.464c0 .595-.482 1.078-1.077 1.078h-2.003c-.297 0-.538-.241-.538-.538v-2.543c.001-.297.241-.538.538-.538z"/><path d="m150.294 121.718c-.828 0-1.5-.672-1.5-1.5v-15.267c0-.828.672-1.5 1.5-1.5s1.5.672 1.5 1.5v15.267c0 .828-.672 1.5-1.5 1.5z"/></g><path d="m143.948 125.006c0-3.503 2.84-6.343 6.343-6.343s6.343 2.84 6.343 6.343-2.84 6.343-6.343 6.343-6.343-2.84-6.343-6.343z" fill="#f16c7a"/><path d="m150.291 132.849c-4.324 0-7.843-3.519-7.843-7.843 0-4.325 3.519-7.844 7.843-7.844s7.843 3.519 7.843 7.844-3.519 7.843-7.843 7.843zm0-12.686c-2.67 0-4.843 2.173-4.843 4.844 0 2.67 2.173 4.843 4.843 4.843s4.843-2.173 4.843-4.843c0-2.672-2.173-4.844-4.843-4.844z" fill="#3a312a"/><path d="m147.482 125.006c0-1.551 1.258-2.809 2.809-2.809s2.809 1.258 2.809 2.809c0 1.552-1.258 2.809-2.809 2.809-1.552 0-2.809-1.258-2.809-2.809z" fill="#3a312a"/><path d="m16.5 225.033v14.719h80v-47.608c0-3.211-2.603-5.814-5.814-5.814h-68.372c-3.211 0-5.814 2.603-5.814 5.814v14.511z" fill="#d6df58"/><path d="m96.5 241.252h-80c-.828 0-1.5-.672-1.5-1.5v-14.719c0-.828.672-1.5 1.5-1.5s1.5.672 1.5 1.5v13.219h77v-46.108c0-2.379-1.936-4.314-4.314-4.314h-68.371c-2.379 0-4.315 1.936-4.315 4.314v14.511c0 .828-.672 1.5-1.5 1.5s-1.5-.672-1.5-1.5v-14.511c0-4.033 3.281-7.314 7.315-7.314h68.371c4.033 0 7.314 3.281 7.314 7.314v47.608c0 .829-.672 1.5-1.5 1.5z" fill="#3a312a"/><path d="m92.431 152.641v33.689h-71.862v-33.689c0-8.05 5.88-14.727 13.585-15.981.856-.14 1.739-.215 2.639-.215h39.431c.894 0 1.766.07 2.622.215 7.711 1.243 13.585 7.926 13.585 15.981z" fill="#ea6d7a"/><path d="m92.431 187.83h-71.862c-.828 0-1.5-.672-1.5-1.5v-33.689c0-8.718 6.243-16.061 14.844-17.462.958-.156 1.927-.235 2.88-.235h39.431c.98 0 1.947.08 2.873.237 8.591 1.386 14.834 8.729 14.834 17.46v33.689c0 .828-.672 1.5-1.5 1.5zm-70.362-3h68.861v-32.189c0-7.25-5.183-13.349-12.324-14.501-.772-.131-1.569-.196-2.383-.196h-39.43c-.792 0-1.599.066-2.397.196-7.143 1.163-12.326 7.262-12.326 14.501v32.189z" fill="#3a312a"/><path d="m33.702 187.83c-.828 0-1.5-.672-1.5-1.5v-30.607c0-.828.672-1.5 1.5-1.5s1.5.672 1.5 1.5v30.607c0 .828-.672 1.5-1.5 1.5z" fill="#3a312a"/><path d="m79.298 187.83c-.828 0-1.5-.672-1.5-1.5v-30.607c0-.828.672-1.5 1.5-1.5s1.5.672 1.5 1.5v30.607c0 .828-.672 1.5-1.5 1.5z" fill="#3a312a"/><path d="m86.384 148.402h-59.768v-68.116c0-16.505 13.38-29.884 29.884-29.884 16.505 0 29.884 13.38 29.884 29.884z" fill="#87796f"/><path d="m86.384 149.902h-59.768c-.828 0-1.5-.672-1.5-1.5v-68.115c0-17.306 14.079-31.385 31.384-31.385s31.384 14.079 31.384 31.385v68.115c0 .828-.672 1.5-1.5 1.5zm-58.268-3h56.768v-66.615c0-15.651-12.733-28.385-28.384-28.385s-28.384 12.733-28.384 28.385z" fill="#3a312a"/><path d="m216.46 151.097v87.16h15v-87.16z" fill="#695b51"/><path d="m223.06 138.097h15v10h-15z" fill="#b9c239"/></g></svg>