<svg id="Layer_1" enable-background="new 0 0 128 128" height="512" viewBox="0 0 128 128" width="512" xmlns="http://www.w3.org/2000/svg"><path d="m110.959 101.621c-2.111-3.874-6.98-5.307-10.853-3.197l-10.039 5.47v-7.633c0-4.411-3.589-8-8-8v-28.604c0-2.289-.8-4.525-2.252-6.297l-15.091-18.391v-6.532h1.563c2.109 0 3.826-1.717 3.826-3.826v-11.214c0-2.109-1.717-3.825-3.826-3.825h-30.44c-2.109 0-3.826 1.716-3.826 3.825v11.213c0 2.109 1.717 3.826 3.826 3.826h1.554v6.543l-15.082 18.382c-1.452 1.771-2.252 4.007-2.252 6.296v52.844c0 5.474 4.453 9.927 9.927 9.927h42.146c1.93 0 3.728-.563 5.254-1.52 1.316.952 2.928 1.52 4.673 1.52 1.186 0 2.308-.266 3.321-.731.848.291 1.724.445 2.6.445 1.317 0 2.629-.327 3.821-.977l15.952-8.691c3.875-2.111 5.308-6.979 3.198-10.853z" fill="#e6e7e8"/><path d="m71.067 110.428v-18.167c0-3.526 2.609-6.434 6-6.921v-29.682c0-2.065-.716-4.066-2.026-5.662l-15.297-18.645h-.019v-7.915h-25.324v7.915h-.011l-15.297 18.644c-1.31 1.596-2.026 3.597-2.026 5.662v52.844c0 4.93 3.997 8.926 8.926 8.926h42.147c1.988 0 3.817-.657 5.3-1.756-1.452-1.282-2.373-3.153-2.373-5.243z" fill="#fff"/><path d="m71.067 110.428v-18.167c0-3.526 2.609-6.434 6-6.921v-29.682c0-2.065-.716-4.066-2.026-5.662l-15.297-18.645h-.019v-7.915h-22.324l-.009 6.594c-.001.854-.298 1.682-.84 2.342l-14.46 17.623c-1.31 1.596-2.026 3.597-2.026 5.662v52.844c0 4.93 3.996 8.926 8.926 8.926h39.147c1.988 0 3.817-.657 5.3-1.756-1.451-1.282-2.372-3.153-2.372-5.243z" fill="#6dc9f7"/><path d="m62.287 6.572h-30.44c-1.56 0-2.825 1.265-2.825 2.825v11.213c0 1.56 1.265 2.825 2.825 2.825h30.44c1.56 0 2.825-1.265 2.825-2.825v-11.213c.001-1.56-1.264-2.825-2.825-2.825z" fill="#0089ef"/><path d="m71.067 92.261c0-3.526 2.609-6.434 6-6.921v-25.658h-57v40.241h51z" fill="#d4fbff"/><path d="m60.922 74.935h-10.11v-10.11h-9.736v10.11h-10.11v9.736h10.11v10.11h9.736v-10.11h10.11z" fill="#fa759e"/><path d="m106.081 98.099c-1.85-3.395-6.101-4.647-9.496-2.798l-11.518 6.275v8.851c0 2.686-1.515 5.016-3.736 6.19 1.88.768 4.076.717 5.999-.331l15.952-8.692c3.396-1.848 4.648-6.1 2.799-9.495z" fill="#0089ef"/><path d="m88.608 99.647-3.541 1.93v8.851c0 2.686-1.515 5.016-3.736 6.19 1.88.768 4.076.717 5.999-.331l7.976-4.346z" fill="#d4fbff"/><path d="m78.067 85.261c-3.866 0-7 3.134-7 7v18.167c0 3.866 3.134 7 7 7s7-3.134 7-7v-18.167c0-3.866-3.134-7-7-7z" fill="#0089ef"/><path d="m71.067 101.344v9.083c0 3.866 3.134 7 7 7s7-3.134 7-7v-9.083z" fill="#d4fbff"/><g fill="#3a2c60"><path d="m50.811 63.825h-9.735c-.553 0-1 .447-1 1v9.11h-9.11c-.553 0-1 .447-1 1v9.735c0 .553.447 1 1 1h9.11v9.11c0 .553.447 1 1 1h9.735c.553 0 1-.447 1-1v-9.11h9.11c.553 0 1-.447 1-1v-9.735c0-.553-.447-1-1-1h-9.11v-9.11c0-.553-.447-1-1-1zm9.111 12.111v7.735h-9.11c-.553 0-1 .447-1 1v9.11h-7.735v-9.11c0-.553-.447-1-1-1h-9.11v-7.735h9.11c.553 0 1-.447 1-1v-9.11h7.735v9.11c0 .553.447 1 1 1z"/><path d="m25.538 43.14c.289 0 .576-.125.774-.365l4.047-4.932c.35-.428.288-1.058-.139-1.408-.428-.351-1.058-.287-1.408.139l-4.047 4.932c-.35.428-.288 1.058.139 1.408.187.151.411.226.634.226z"/><path d="m106.959 97.621c-1.022-1.876-2.714-3.242-4.764-3.846-2.051-.604-4.214-.375-6.089.648l-10.039 5.47v-7.633c0-4.411-3.589-8-8-8v-28.603c0-2.289-.8-4.525-2.252-6.297l-15.09-18.39v-6.533h1.563c2.109 0 3.825-1.717 3.825-3.826v-11.214c0-2.109-1.716-3.825-3.825-3.825h-30.44c-2.109 0-3.826 1.716-3.826 3.825v11.213c0 2.109 1.717 3.826 3.826 3.826h1.554v6.544l-2.139 2.605c-.35.428-.288 1.058.139 1.408.429.351 1.057.287 1.408-.139l2.276-2.775c.194-.183.315-.441.315-.729v-6.915h23.323v6.915c0 .284.124.54.318.723l15.226 18.555c1.16 1.414 1.799 3.2 1.799 5.028v28.867c-3.445.892-6 4.017-6 7.737v18.167c0 1.913.676 3.669 1.8 5.047-1.113.6-2.377.953-3.727.953h-42.146c-4.371 0-7.927-3.556-7.927-7.927v-52.843c0-1.828.639-3.614 1.799-5.027l3.954-4.819c.35-.428.288-1.058-.139-1.408-.428-.351-1.057-.286-1.408.139l-3.954 4.82c-1.452 1.771-2.252 4.007-2.252 6.296v52.844c0 5.474 4.453 9.927 9.927 9.927h42.146c1.93 0 3.726-.564 5.25-1.523 1.317.954 2.93 1.523 4.676 1.523 1.185 0 2.307-.266 3.32-.731.848.292 1.725.446 2.601.446 1.318 0 2.63-.328 3.821-.978l15.952-8.691c3.876-2.112 5.309-6.98 3.199-10.854zm-72.558-75.185h-2.554c-1.007 0-1.826-.819-1.826-1.826v-11.213c0-1.007.819-1.825 1.826-1.825h30.439c1.007 0 1.825.818 1.825 1.825v11.213c0 1.007-.818 1.826-1.825 1.826h-2.563zm37.666 87.992v-18.167c0-3.309 2.691-6 6-6s6 2.691 6 6v18.167c0 3.309-2.691 6-6 6s-6-2.692-6-6zm33.622-7.283c-.453 1.537-1.478 2.807-2.885 3.573l-15.952 8.691c-.988.538-2.082.775-3.178.725 1.104-1.083 1.867-2.466 2.2-3.982.009-.039.022-.076.03-.115.032-.158.051-.32.074-.48.015-.105.037-.208.048-.315.027-.268.041-.54.041-.814v-8.257l10.996-5.991c1.407-.766 3.028-.938 4.566-.486 1.537.453 2.807 1.478 3.573 2.885s.941 3.027.487 4.566z"/><path d="m35.067 9.678c-.553 0-1 .447-1 1v8.875c0 .553.447 1 1 1s1-.447 1-1v-8.875c0-.553-.447-1-1-1z"/><path d="m39.067 9.678c-.553 0-1 .447-1 1v8.875c0 .553.447 1 1 1s1-.447 1-1v-8.875c0-.553-.447-1-1-1z"/><path d="m43.067 9.678c-.553 0-1 .447-1 1v8.875c0 .553.447 1 1 1s1-.447 1-1v-8.875c0-.553-.447-1-1-1z"/><path d="m47.067 9.678c-.553 0-1 .447-1 1v8.875c0 .553.447 1 1 1s1-.447 1-1v-8.875c0-.553-.447-1-1-1z"/><path d="m51.067 9.678c-.553 0-1 .447-1 1v8.875c0 .553.447 1 1 1s1-.447 1-1v-8.875c0-.553-.447-1-1-1z"/><path d="m55.067 9.678c-.553 0-1 .447-1 1v8.875c0 .553.447 1 1 1s1-.447 1-1v-8.875c0-.553-.447-1-1-1z"/><path d="m60.067 19.553v-8.875c0-.553-.447-1-1-1s-1 .447-1 1v8.875c0 .553.447 1 1 1s1-.448 1-1z"/></g></svg>