<svg height="512" viewBox="0 0 128 128" width="512" xmlns="http://www.w3.org/2000/svg"><path d="m114.388 26.334a11.1 11.1 0 0 0 -11.088-11.086h-74.6a11.1 11.1 0 0 0 -11.085 11.091v66.345c0 .032 0 .072.006.108a6.059 6.059 0 0 0 6.039 5.932h14.14v15.023a3 3 0 0 0 3 3h70.591a3 3 0 0 0 3-3z" fill="#e6e7e8"/><path d="m109.388 22.334a10.086 10.086 0 0 0 -10.088-10.086h-74.6a10.091 10.091 0 0 1 10.1 10.091v87.413a2 2 0 0 0 2 2h70.591a2 2 0 0 0 2-2z" fill="#d4fbff"/><path d="m37.8 109.752v-87.413a10.091 10.091 0 0 0 -10.094-10.091h-3a10.091 10.091 0 0 1 10.094 10.091v87.413a2 2 0 0 0 2 2h3a2 2 0 0 1 -2-2z" fill="#fff"/><path d="m14.612 48.313v40.37.033-40.4z" fill="#fa759e"/><path d="m24.706 12.248a10.091 10.091 0 0 0 -10.091 10.091v66.377a5.044 5.044 0 0 0 5.042 5.013h15.143v-71.39a10.091 10.091 0 0 0 -10.094-10.091z" fill="#0089ef"/><path d="m19.657 93.729a5.046 5.046 0 0 0 5.043-5.046v-57.023a2 2 0 0 1 2-2h8.1v64.069z" fill="#d4fbff"/><path d="m78.6 41.757a10.6 10.6 0 0 1 -12.782 0 11.161 11.161 0 0 0 -8.608 10.859v5.8a2 2 0 0 0 2 2h26a2 2 0 0 0 2-2v-5.8a11.16 11.16 0 0 0 -8.61-10.859z" fill="#fa759e"/><circle cx="72.21" cy="33.242" fill="#fff" r="10.659"/><g fill="#3a2c60"><path d="m95.273 110.752h-9.75a1 1 0 0 0 0 2h9.75a1 1 0 0 0 0-2z"/><path d="m99.3 11.248h-74.6a11.1 11.1 0 0 0 -11.085 11.091v25.961.016 40.368c0 .037 0 .081.007.123a6.057 6.057 0 0 0 6.037 5.918h14.141v15.024a3 3 0 0 0 3 3h44.473a1 1 0 0 0 0-2h-44.473a1 1 0 0 1 -1-1v-87.41a11.081 11.081 0 0 0 -4.756-9.091h68.256a9.1 9.1 0 0 1 9.086 9.086v87.418a1 1 0 0 1 -1 1h-8.113a1 1 0 0 0 0 2h8.115a3 3 0 0 0 3-3v-87.418a11.1 11.1 0 0 0 -11.088-11.086zm-75.154 81.48a6.021 6.021 0 0 0 1.554-4.044v-57.024a1 1 0 0 1 1-1h7.1v62.068zm9.654-70.389v6.321h-7.1a3 3 0 0 0 -3 3v57.024a4.044 4.044 0 0 1 -8.088.032v-66.377a9.091 9.091 0 1 1 18.182 0z"/><path d="m96.6 69.622h-48.254a1 1 0 1 0 0 2h48.254a1 1 0 0 0 0-2z"/><path d="m96.6 83.122h-48.254a1 1 0 1 0 0 2h48.254a1 1 0 0 0 0-2z"/><path d="m96.6 96.622h-48.254a1 1 0 1 0 0 2h48.254a1 1 0 0 0 0-2z"/><path d="m56.21 52.616v5.8a3 3 0 0 0 3 3h26a3 3 0 0 0 3-3v-5.8a12.174 12.174 0 0 0 -7.629-11.277 11.659 11.659 0 1 0 -16.741 0 12.173 12.173 0 0 0 -7.63 11.277zm16-29.033a9.659 9.659 0 1 1 -9.658 9.659 9.67 9.67 0 0 1 9.658-9.659zm-6.587 19.269a11.619 11.619 0 0 0 13.175 0 10.162 10.162 0 0 1 7.412 9.764v5.8a1 1 0 0 1 -1 1h-26a1 1 0 0 1 -1-1v-5.8a10.163 10.163 0 0 1 7.413-9.764z"/></g></svg>